<?xml version="1.0" encoding="UTF-8" standalone="no"?>
<!-- Created with Inkscape (http://www.inkscape.org/) -->

<svg
   width="115.86734mm"
   height="85.404137mm"
   viewBox="0 0 115.86734 85.404137"
   version="1.1"
   id="svg1"
   xml:space="preserve"
   inkscape:version="1.3.2 (091e20e, 2023-11-25, custom)"
   sodipodi:docname="logo-full-border-white.svg"
   xmlns:inkscape="http://www.inkscape.org/namespaces/inkscape"
   xmlns:sodipodi="http://sodipodi.sourceforge.net/DTD/sodipodi-0.dtd"
   xmlns="http://www.w3.org/2000/svg"
   xmlns:svg="http://www.w3.org/2000/svg"><sodipodi:namedview
     id="namedview1"
     pagecolor="#ffffff"
     bordercolor="#eeeeee"
     borderopacity="1"
     inkscape:showpageshadow="0"
     inkscape:pageopacity="0"
     inkscape:pagecheckerboard="0"
     inkscape:deskcolor="#505050"
     inkscape:document-units="mm"
     inkscape:zoom="0.52347032"
     inkscape:cx="91.695743"
     inkscape:cy="-8.5964759"
     inkscape:window-width="1920"
     inkscape:window-height="1009"
     inkscape:window-x="-8"
     inkscape:window-y="-8"
     inkscape:window-maximized="1"
     inkscape:current-layer="layer1"
     showguides="true" /><defs
     id="defs1" /><g
     inkscape:label="Layer 1"
     inkscape:groupmode="layer"
     id="layer1"
     transform="translate(-183.5273,35.120877)"><g
       id="g7"
       transform="matrix(0.22613657,0,0,0.22613657,372.58671,-32.691841)"
       style="stroke-width:4.4221;fill:#ffffff"
       inkscape:export-filename="g7.png"
       inkscape:export-xdpi="96"
       inkscape:export-ydpi="96"><g
         id="text2"
         style="font-style:italic;font-size:82.1196px;font-family:'Gotham Office';-inkscape-font-specification:'Gotham Office Italic';letter-spacing:0px;word-spacing:0px;stroke-width:2.21104;stroke-linecap:round;stroke-miterlimit:9.8;paint-order:fill markers stroke;fill:#ffffff"
         aria-label="magpies&#10;agency"><path
           id="path1"
           style="-inkscape-font-specification:'FONTSPRING DEMO - Integral CF, Normal';stroke-width:2.21106;fill:#ffffff"
           d="m -513.38162,-10.741263 c -0.44156,-0.0074 -0.85091,0.197206 -1.22486,0.617001 -0.72469,0.8135293 -0.85409,1.5400697 -0.6627,3.7362802 l 0.16453,1.8921347 -1.25,-1.9835422 c -1.50731,-2.3923749 -1.93252,-2.9192111 -2.97074,-3.6631547 -1.03592,-0.74229 -2.0057,-0.740336 -2.38573,0.0023 -0.5571,1.0886909 0.58255,4.7964761 3.16727,10.30390796 0.77776,1.65731544 1.21408,2.71525484 0.96891,2.35145734 -5.56972,-8.2647187 -9.75578,-12.2630624 -12.3103,-11.7618569 -1.44784,0.2840758 -1.76781,0.8798711 -1.59734,2.9616022 0.51929,6.34178525 10.21013,26.8327714 27.56392,58.2768354 2.36919,4.292853 5.52952,9.957317 7.02238,12.58681 2.84797,5.016322 3.57892,6.401459 2.98446,5.651267 -0.18175,-0.229153 -2.08119,-2.881457 -4.22303,-5.893497 -2.14185,-3.01204 -3.9249,-5.444217 -3.96023,-5.404467 -0.0929,0.10445 1.03137,7.846881 1.79387,12.356005 1.5132,8.948549 3.32908,16.544799 4.57266,19.127015 0.33033,0.686389 0.60101,1.34375 0.60101,1.462519 0,0.118778 -2.27003,1.339543 -5.0457,2.712517 -2.77566,1.372961 -5.01364,2.532454 -4.97256,2.575406 0.0398,0.04289 1.77231,-0.349207 3.84597,-0.870657 15.89361,-3.996788 32.37192,-7.41012 43.36142,-8.980784 4.11454,-0.588064 11.70587,-0.822738 13.33635,-0.413619 1.51682,0.380566 2.31094,1.166931 2.51599,2.488569 0.28832,1.859299 -0.7778,3.185517 -3.48263,4.328144 -4.63184,1.956687 -11.10981,2.858811 -29.95194,4.175036 -18.00746,1.25792 -26.42405,2.556504 -34.58402,5.331344 -4.88196,1.66017 -11.40498,5.27978 -12.87931,7.14807 -0.32547,0.41223 -0.21838,0.43263 1.42138,0.27879 6.12904,-0.57506 11.48325,-0.76169 18.26322,-0.63757 7.75088,0.1419 10.04822,0.36793 16.64758,1.63848 5.57632,1.07359 12.19157,1.95901 16.78927,2.24634 12.01941,0.75114 21.01311,-1.71911 26.61786,-7.31031 l 1.44424,-1.43967 0.68327,2.24634 c 0.80721,2.65119 2.53357,5.85019 3.96023,7.3423 2.15838,2.25737 4.52162,2.79494 7.88618,1.79159 3.21619,-0.95909 5.82688,-2.72343 8.67914,-5.86379 2.33672,-2.57278 3.65716,-4.63284 5.28335,-8.24495 1.51625,-3.367809 2.64842,-7.01695 3.41407,-11.003184 2.71924,-14.157731 6.67494,-23.122274 13.26551,-30.066203 3.04966,-3.213188 6.14719,-5.532739 9.70747,-7.271465 2.07861,-1.015124 5.97916,-2.444133 7.57311,-2.774217 0.4522,-0.09375 0.82267,-0.253424 0.82267,-0.354204 0,-0.372739 -2.78675,-1.083275 -5.42732,-1.384823 -3.18206,-0.363364 -7.35932,-0.04771 -11.4625,0.866086 l -2.53884,0.564441 -1.60649,-0.548445 c -6.79168,-2.316147 -14.36822,-3.083087 -18.78652,-1.901275 -3.29712,0.881948 -5.95207,4.683015 -9.36469,8.608299 -8.61899,9.913782 -0.11231,19.943378 -2.46115,25.1919 -7.03645,15.723889 -5.09405,-16.370923 -6.15858,-15.276475 -8.72211,8.966993 -11.51076,7.937825 -15.18278,9.696048 -1.04419,0.499954 -2.30239,0.795085 -4.51782,1.060327 -10.43213,1.249018 -18.65755,3.771478 -26.65899,8.174114 -1.70445,0.937848 -3.09871,1.649247 -3.09871,1.579064 0,-0.251972 5.22756,-4.485666 7.20977,-5.838653 1.11308,-0.759757 2.678,-1.715648 3.47805,-2.125224 0.80005,-0.409575 1.45338,-0.848745 1.45338,-0.975774 0,-0.127003 -0.95611,-2.394911 -2.12523,-5.038837 -7.19484,-16.271023 -13.46057,-31.183726 -16.47162,-39.202381 -0.8743,-2.328334 -2.97978,-8.341018 -4.67778,-13.361488 -5.55752,-16.4313242 -7.29252,-21.10080701 -9.68691,-26.0442749 -1.83018,-3.778589 -3.44679,-5.7114591 -4.77147,-5.7335341 z m 99.83068,66.608627 c 0.2873,-0.01855 0.59795,0.02538 0.92321,0.143967 1.70185,0.620461 1.78622,3.312714 0.12797,4.067633 -0.97755,0.444987 -0.78315,0.444151 -1.7733,0.01143 -2.22035,-0.970253 -1.28899,-4.093163 0.72212,-4.223026 z m -67.38331,62.141086 c -0.19445,-0.048 -0.29555,0.059 -0.45247,0.28336 -0.52353,0.74882 -2.36774,5.91675 -2.66681,7.47028 -0.26754,1.39007 -0.25825,1.432 1.01005,4.09963 0.70498,1.48286 3.26283,6.15008 5.68326,10.37017 7.05164,12.29477 10.0405,17.53711 10.84093,18.98305 h -265.66212 c -57.38445,0 -103.85945,46.47499 -103.85945,103.85946 0,57.38447 46.475,103.85032 103.85945,103.85032 h 304.65883 c 57.38451,0 103.85946,-46.46585 103.85946,-103.85032 0,-57.38447 -46.47495,-103.85946 -103.85946,-103.85946 h -9.71661 l -1.34598,-2.63253 c -1.39137,-2.72125 -3.16442,-6.20492 -3.93966,-7.73993 -0.77519,-1.535 -2.34793,-4.60379 -3.49405,-6.819 l -2.08409,-4.0265 0.8798,-2.85191 c 1.03689,-3.36014 1.67961,-6.70102 1.67961,-8.7317 0,-1.44945 -0.003,-1.45723 -0.6947,-1.30713 -0.38251,0.083 -1.92697,0.29595 -3.43235,0.47304 l -2.73765,0.32221 -0.70612,1.0786 c -0.98038,1.49716 -1.68382,2.99967 -2.02468,4.32358 -0.48276,1.87503 -0.20083,2.44685 10.06168,20.42271 2.2991,4.02725 3.4251,6.08566 4.17961,7.48856 h -22.39712 l -4.2573,-8.31808 c -2.99147,-5.84357 -6.31627,-12.36121 -7.38801,-14.48351 l -1.94927,-3.8574 0.8798,-2.44972 c 1.25057,-3.48206 1.66336,-5.36525 1.57678,-7.20748 l -0.0754,-1.60649 -2.13437,-0.89807 c -1.1734,-0.49421 -2.64622,-1.27741 -3.27239,-1.73903 -0.53668,-0.39564 -0.82474,-0.59871 -1.01919,-0.64671 z m -251.24716,58.89612 h 304.65883 c 47.89111,0 86.16983,38.27873 86.16983,86.16983 0,47.89109 -38.27872,86.16983 -86.16983,86.16983 h -304.65883 c -47.89109,0 -86.16982,-38.27874 -86.16982,-86.16983 0,-47.8911 38.27873,-86.16983 86.16982,-86.16983 z m 126.87587,22.08633 c -18.88748,0 -31.75268,12.59182 -31.75268,30.65807 0,18.06625 13.27615,30.65807 30.65807,30.65807 10.19649,0 17.45226,-4.24298 21.42134,-10.26506 l 0.13483,8.34779 h 8.55574 v -30.38385 h -30.04335 v 9.23901 h 16.69786 c -1.98456,8.69096 -9.98974,11.22256 -15.73808,11.22256 -10.33336,0 -18.2038,-7.80084 -18.2038,-18.81852 0,-11.08612 7.80021,-18.8208 18.47573,-18.8208 6.91173,0 12.11313,3.21775 14.30299,8.41863 h 13.61743 c -3.07948,-14.43933 -15.67133,-20.2559 -28.12608,-20.2559 z m 192.98174,0 c -16.0817,0 -25.25131,6.43177 -25.25131,17.31258 0,12.52321 10.81247,15.39874 21.69328,17.31486 l 7.11607,1.23172 c 6.84327,1.16336 10.05939,3.14695 10.05939,7.11607 0,4.51655 -4.85828,7.5274 -13.75454,7.5274 -9.44372,-0.0684 -13.89251,-3.49003 -14.37154,-8.89623 h -12.31716 c -0.0684,13.48127 9.16992,19.70974 26.6887,19.70974 17.92939,0 27.3057,-6.5013 27.3057,-17.92958 0,-13.75498 -13.48168,-15.60225 -24.43093,-17.5868 l -6.22714,-1.09689 c -5.88521,-1.0949 -8.69056,-3.28321 -8.69056,-6.77329 0,-4.44814 4.10449,-7.11836 11.90582,-7.11836 8.62252,0 12.66153,3.48966 13.55116,8.69057 h 12.2486 C -386.93513,204.25866 -397.337,198.9909 -412.3238,198.9909 Z m -354.20853,1.91499 v 57.48388 h 13.07126 v -34.62744 h 1.16316 l 12.65994,34.62744 h 10.60555 l 12.66222,-34.62744 h 1.16316 v 34.62744 h 13.06899 v -57.48388 h -17.44969 l -14.23443,40.30841 h -1.02605 l -14.23443,-40.30841 z m 90.46826,0 -22.24173,57.48388 h 14.09732 l 3.56032,-9.64806 h 28.32947 l 3.56032,9.64806 h 14.16359 l -22.308,-57.48388 z m 105.93441,0 v 57.48388 h 13.61743 v -15.39759 h 16.42363 c 15.32896,0 23.67911,-7.32116 23.67911,-21.00773 0,-13.75497 -8.35015,-21.07856 -23.67911,-21.07856 z m 58.8527,0 v 57.48388 h 13.61743 v -57.48388 z m 19.50178,0 v 57.48388 h 48.38427 v -11.22256 h -34.76455 v -12.65993 h 33.53055 v -9.85373 h -33.53055 v -12.59138 h 34.76455 v -11.15628 z m -64.73705,11.42822 h 15.5347 c 6.7064,0 10.87977,3.21767 10.87977,9.65034 0,6.36427 -4.17337,9.57951 -10.87977,9.57951 h -15.5347 z m -111.27261,1.50594 h 2.60054 l 9.03335,24.56804 h -20.66495 z m -7.79934,51.74348 c -18.88744,0 -31.75496,12.59182 -31.75496,30.65807 0,18.06625 13.27614,30.65807 30.65807,30.65807 10.19648,0 17.45223,-4.24299 21.42134,-10.26506 l 0.13711,8.35007 h 8.55346 v -30.38613 h -30.04336 v 9.23901 h 16.69786 c -1.98453,8.69097 -9.98971,11.22256 -15.73808,11.22256 -10.33335,0 -18.2038,-7.80084 -18.2038,-18.81852 0,-11.08611 7.80022,-18.81851 18.47574,-18.81851 6.91171,0 12.11315,3.21546 14.30298,8.41634 h 13.61972 c -3.07949,-14.43931 -15.6713,-20.2559 -28.12608,-20.2559 z m 182.85151,0 c -18.61371,0 -31.47845,12.59182 -31.47845,30.65807 0,18.06625 12.86474,30.65807 31.47845,30.65807 12.72851,0 25.526,-5.61087 28.33175,-22.58222 h -13.07127 c -2.46359,7.45916 -8.14348,10.74267 -15.26048,10.74267 -10.19649,0 -17.99813,-7.80084 -17.99813,-18.81852 0,-11.08611 7.80164,-18.81851 17.99813,-18.81851 7.117,0 12.79689,3.28334 15.26048,10.67411 h 13.07127 c -2.80575,-16.90293 -15.74011,-22.51367 -28.33175,-22.51367 z m -253.61232,1.91728 -22.24173,57.48387 h 14.09732 l 3.56032,-9.65034 h 28.32946 l 3.56032,9.65034 h 14.16588 l -22.31028,-57.48387 z m 105.9344,0 v 57.48387 h 48.38198 v -11.22484 h -34.76455 v -12.65993 h 33.53284 v -9.85373 h -33.53284 V 278.6548 h 34.76455 v -11.15399 z m 54.26634,0 v 57.48387 h 13.34549 v -38.66536 h 1.23171 l 27.03148,38.66536 h 15.5347 v -57.48387 h -13.34549 v 38.66307 h -1.30027 l -26.6887,-38.66307 z m 119.41701,0 23.67682,39.00585 v 18.47802 h 13.68827 v -18.40946 l 23.74538,-39.07441 h -14.50866 l -15.32903,25.72892 h -1.43738 l -15.32904,-25.72892 z m -271.33624,12.93187 h 2.60055 l 9.03105,24.56804 h -20.66494 z" /></g></g></g></svg>
