<?xml version="1.0" encoding="UTF-8" standalone="no"?>
<!-- Created with Inkscape (http://www.inkscape.org/) -->

<svg
   width="41.554127mm"
   height="106.56582mm"
   viewBox="0 0 41.554127 106.56582"
   version="1.1"
   id="svg1"
   xml:space="preserve"
   inkscape:version="1.3.2 (091e20e, 2023-11-25, custom)"
   sodipodi:docname="logo-vertical-black.svg"
   xmlns:inkscape="http://www.inkscape.org/namespaces/inkscape"
   xmlns:sodipodi="http://sodipodi.sourceforge.net/DTD/sodipodi-0.dtd"
   xmlns="http://www.w3.org/2000/svg"
   xmlns:svg="http://www.w3.org/2000/svg"><sodipodi:namedview
     id="namedview1"
     pagecolor="#ffffff"
     bordercolor="#eeeeee"
     borderopacity="1"
     inkscape:showpageshadow="0"
     inkscape:pageopacity="0"
     inkscape:pagecheckerboard="0"
     inkscape:deskcolor="#505050"
     inkscape:document-units="mm"
     inkscape:zoom="0.74029882"
     inkscape:cx="345.80631"
     inkscape:cy="426.17926"
     inkscape:window-width="1920"
     inkscape:window-height="1009"
     inkscape:window-x="-8"
     inkscape:window-y="-8"
     inkscape:window-maximized="1"
     inkscape:current-layer="g6" /><defs
     id="defs1" /><g
     inkscape:label="Layer 1"
     inkscape:groupmode="layer"
     id="layer1"
     transform="translate(-34.969865,-148.5)"><g
       id="g4"
       transform="matrix(0.31453119,0,0,0.31453119,294.10176,98.214953)"
       style="stroke-width:3.17933"><g
         id="g1"
         transform="translate(-74.995576,-202.2608)"><g
           id="g7"
           transform="matrix(0.71896389,0,0,0.71896389,-131.77236,-30.174468)"
           style="stroke-width:4.4221"
           inkscape:export-filename="full.svg"
           inkscape:export-xdpi="96"
           inkscape:export-ydpi="96"><path
             style="fill:#000000;stroke-width:4.4221"
             d="m -453.38504,202.49284 -2.52981,-4.94772 c -1.3914,-2.72125 -3.16409,-6.20364 -3.93931,-7.73865 -0.77522,-1.535 -2.34724,-4.60337 -3.49339,-6.81859 l -2.08391,-4.02768 0.87995,-2.85149 c 1.03692,-3.36014 1.67966,-6.70171 1.67966,-8.7324 0,-1.44945 -0.004,-1.45606 -0.69569,-1.30595 -0.38263,0.083 -1.92739,0.29576 -3.43278,0.47284 l -2.73709,0.32198 -0.70678,1.07935 c -0.98038,1.49715 -1.68356,2.99855 -2.02442,4.32246 -0.48275,1.87502 -0.20099,2.44694 10.06128,20.42284 2.94473,5.15815 5.35406,9.47416 5.35406,9.59115 -7.44944,0.33384 -14.92893,0.20732 -22.38885,0.20466 l -5.43911,-10.62469 c -2.9915,-5.84358 -6.31597,-12.36112 -7.38772,-14.48343 l -1.94862,-3.85873 0.87926,-2.44822 c 1.25056,-3.48207 1.66222,-5.36507 1.57565,-7.2073 l -0.0755,-1.60773 -2.13348,-0.89856 c -1.17343,-0.49421 -2.64582,-1.27624 -3.272,-1.73786 -1.07338,-0.79128 -1.15757,-0.81206 -1.47138,-0.36322 -0.52353,0.74881 -2.36937,5.91523 -2.66842,7.46876 -0.26758,1.39007 -0.25689,1.43342 1.01135,4.10105 0.70498,1.48287 3.26213,6.14894 5.68257,10.36904 7.83415,13.65905 11.95684,20.87928 12.04302,21.09141 8.39355,0.20133 21.87948,0.88347 29.2615,0.20668 z m 6.78522,-45.00133 c 3.21619,-0.95909 5.82751,-2.72314 8.67974,-5.86351 2.33673,-2.57278 3.65637,-4.63232 5.28258,-8.24444 1.51622,-3.36781 2.6489,-7.01824 3.41452,-11.00447 2.71925,-14.15775 6.67449,-23.12273 13.26507,-30.06666 3.04969,-3.213194 6.14639,-5.533105 9.70664,-7.271825 2.07862,-1.01513 5.97952,-2.44397 7.57346,-2.774046 0.4522,-0.0937 0.82218,-0.2527 0.82218,-0.35346 0,-0.37274 -2.7855,-1.08404 -5.42608,-1.38559 -3.18207,-0.36338 -7.35877,-0.0478 -11.46198,0.86595 l -2.53966,0.56558 -1.60706,-0.54805 c -6.79171,-2.31615 -14.36723,-3.0827 -18.7855,-1.90088 -3.29715,0.88194 -5.95198,4.683066 -9.36462,8.608353 -8.61902,9.913798 -0.11288,19.942128 -2.4616,25.190658 -7.03646,15.7239 -5.09285,-16.37131 -6.15742,-15.27686 -8.72212,8.967 -11.51207,7.93967 -15.18414,9.6979 -1.04415,0.49995 -2.30123,0.79506 -4.51666,1.0603 -10.43215,1.24902 -18.6589,3.7713 -26.66036,8.17395 -1.70446,0.93785 -3.09901,1.64776 -3.09901,1.57757 0,-0.25199 5.22774,-4.48479 7.20996,-5.83777 1.11312,-0.75976 2.67845,-1.7165 3.4785,-2.12608 0.80005,-0.40958 1.45464,-0.84862 1.45464,-0.97566 0,-0.12703 -0.95655,-2.39418 -2.12565,-5.03811 -7.19486,-16.271038 -13.46101,-31.184306 -16.47204,-39.202966 -0.87429,-2.32834 -2.97894,-8.34099 -4.67699,-13.36146 -5.55752,-16.43134 -7.29435,-21.09996 -9.68876,-26.04344 -2.44026,-5.03812 -4.49983,-6.7957 -5.99563,-5.11651 -0.72467,0.81352 -0.85344,1.54028 -0.66202,3.7365 l 0.16484,1.89116 -1.25026,-1.98438 c -1.50733,-2.39238 -1.93361,-2.91759 -2.97183,-3.66153 -1.03592,-0.74229 -2.00636,-0.74206 -2.38638,5.7e-4 -0.55709,1.08868 0.58299,4.79751 3.1677,10.30495 0.7778,1.65732 1.21358,2.71565 0.96841,2.35184 -5.56974,-8.26473 -9.75388,-12.2631 -12.30839,-11.76189 -1.44787,0.28407 -1.7697,0.88011 -1.59923,2.96184 0.51932,6.34179 10.21189,26.83304 27.56568,58.277141 2.3692,4.29286 5.52908,9.956595 7.02193,12.586085 2.84797,5.01633 3.57915,6.40055 2.98468,5.65036 -0.18161,-0.22917 -2.08261,-2.88107 -4.22446,-5.89311 -2.14184,-3.01205 -3.92317,-5.443917 -3.9585,-5.404167 -0.0928,0.10451 1.03078,7.846197 1.79329,12.355327 1.51323,8.94855 3.32946,16.54522 4.57303,19.12743 0.33056,0.68639 0.60101,1.34516 0.60101,1.46393 0,0.11878 -2.271,1.33929 -5.04668,2.71226 -2.77568,1.37297 -5.0131,2.53144 -4.97203,2.57439 0.0411,0.0429 1.77134,-0.34857 3.84503,-0.87004 15.89361,-3.99679 32.37248,-7.40954 43.36195,-8.9802 4.11457,-0.58807 11.7051,-0.82453 13.33562,-0.41544 1.5168,0.38057 2.31308,1.16776 2.51816,2.4894 0.28849,1.8593 -0.7788,3.18524 -3.48364,4.32788 -4.63184,1.95668 -11.11019,2.85993 -29.95235,4.17616 -18.0075,1.25792 -26.42485,2.55515 -34.58481,5.32999 -4.882,1.66016 -11.40298,5.27999 -12.87732,7.14827 -0.32531,0.41223 -0.22011,0.43291 1.41952,0.27907 6.12905,-0.57506 11.48318,-0.76209 18.26313,-0.63796 7.75091,0.1419 10.04895,0.36809 16.6483,1.63864 5.57631,1.07358 12.19258,1.95859 16.79031,2.24592 12.01941,0.75113 21.01158,-1.71837 26.61635,-7.30959 l 1.44421,-1.44071 0.68389,2.24629 c 0.80718,2.65119 2.53301,5.85221 3.9597,7.34433 2.15838,2.25738 4.52244,2.79416 7.88703,1.79081 z m 14.99728,-56.43709 c -2.5375,-1.108857 -0.95661,-5.028615 1.64549,-4.079915 1.70184,0.62047 1.78693,3.313895 0.12854,4.068815 -0.97755,0.44499 -0.78388,0.44378 -1.77403,0.0111 z"
             id="path4"
             sodipodi:nodetypes="cssscsssscsssscsscsscssssssccsssssscssscsssssscssssscssssscssssssssssscssssccsssssssssssscsssssss" /><text
             xml:space="preserve"
             style="font-style:italic;font-variant:normal;font-weight:normal;font-stretch:normal;font-size:82.1196px;line-height:1.2;font-family:'Gotham Office';-inkscape-font-specification:'Gotham Office Italic';text-decoration-color:#000000;letter-spacing:0px;word-spacing:0px;fill:#000000;stroke:none;stroke-width:2.21104;stroke-linecap:round;stroke-miterlimit:9.8;paint-order:fill markers stroke"
             x="-769.47522"
             y="258.3902"
             id="text2"><tspan
               sodipodi:role="line"
               id="tspan2"
               x="-769.47522"
               y="258.3902"
               style="font-style:normal;font-variant:normal;font-weight:normal;font-stretch:normal;font-size:82.1196px;font-family:'FONTSPRING DEMO - Integral CF';-inkscape-font-specification:'FONTSPRING DEMO - Integral CF, Normal';font-variant-ligatures:normal;font-variant-caps:normal;font-variant-numeric:normal;font-variant-east-asian:normal;fill:#000000;stroke:none;stroke-width:2.21106">magpies</tspan><tspan
               sodipodi:role="line"
               x="-769.47522"
               y="361.62628"
               style="font-style:normal;font-variant:normal;font-weight:normal;font-stretch:normal;font-size:82.1196px;font-family:'FONTSPRING DEMO - Integral CF';-inkscape-font-specification:'FONTSPRING DEMO - Integral CF, Normal';font-variant-ligatures:normal;font-variant-caps:normal;font-variant-numeric:normal;font-variant-east-asian:normal;fill:#000000;stroke:none;stroke-width:2.21106"
               id="tspan3"
               dy="-36.642567">agency</tspan></text></g><g
           id="g6"><path
             id="path1"
             style="font-style:italic;font-size:82.1196px;font-family:'Gotham Office';-inkscape-font-specification:'FONTSPRING DEMO - Integral CF, Normal';letter-spacing:0px;word-spacing:0px;stroke-width:1.58967;stroke-linecap:round;stroke-miterlimit:9.8;paint-order:fill markers stroke"
             d="m -733.0184,362.13426 c -0.38582,-0.006 -0.74283,0.15647 -1.06957,0.4896 -0.63319,0.64558 -0.74559,1.22272 -0.57833,2.96556 l 0.14294,1.50167 -1.09257,-1.57561 c -1.31706,-1.8985 -1.68872,-2.31604 -2.59589,-2.90641 -0.90514,-0.58904 -1.75288,-0.58769 -2.08493,0.002 -0.48677,0.86392 0.50833,3.80655 2.76676,8.17704 0.6796,1.31519 1.06035,2.15512 0.84613,1.86641 -4.86664,-6.55857 -8.52117,-9.73143 -10.75322,-9.33369 -1.26509,0.22544 -1.54712,0.69912 -1.39816,2.35108 0.45375,5.03261 8.92276,21.29341 24.08589,46.24624 2.07013,3.40663 4.83045,7.90093 6.13484,9.98759 2.48847,3.98077 3.12847,5.07897 2.60903,4.48366 -0.15867,-0.18187 -1.82028,-2.28565 -3.69175,-4.67589 -1.87146,-2.39023 -3.42757,-4.32133 -3.45844,-4.28978 -0.0811,0.083 0.90112,6.22696 1.56739,9.80522 1.3222,7.10124 2.90909,13.13023 3.99569,15.17937 0.28883,0.54469 0.52411,1.06732 0.52411,1.16158 0,0.0943 -1.98443,1.06275 -4.40972,2.15229 -2.42528,1.08954 -4.3799,2.00811 -4.34401,2.04221 0.0359,0.034 1.54796,-0.27622 3.35987,-0.69005 13.88727,-3.1717 28.28624,-5.87913 37.88846,-7.12555 3.59516,-0.46666 10.22723,-0.65487 11.65192,-0.33023 1.32533,0.30201 2.02075,0.92605 2.19993,1.97484 0.25207,1.47548 -0.67939,2.52868 -3.04277,3.43545 -4.04715,1.55274 -9.70885,2.26934 -26.17247,3.31386 -15.7343,0.99822 -23.08919,2.02699 -30.21908,4.229 -4.26572,1.31744 -9.96283,4.19055 -11.25104,5.67316 -0.28426,0.32712 -0.19222,0.34387 1.24044,0.2218 5.35534,-0.45636 10.03241,-0.60452 15.95649,-0.50603 6.77247,0.1126 8.78055,0.29133 14.54683,1.29959 4.87238,0.85194 10.65436,1.55459 14.6717,1.78261 10.50212,0.59608 18.35894,-1.36433 23.25619,-5.80131 l 1.2618,-1.14351 0.59804,1.78262 c 0.70527,2.10388 2.2135,4.64516 3.46009,5.82925 1.88592,1.79136 3.95074,2.21737 6.8906,1.42117 2.8102,-0.7611 5.09175,-2.1608 7.58394,-4.65289 2.04173,-2.04165 3.19582,-3.67751 4.61673,-6.54393 1.32483,-2.67257 2.31465,-5.56906 2.98363,-8.73237 2.37598,-11.23505 5.83087,-18.34872 11.58949,-23.85917 2.66472,-2.54986 5.37017,-4.39033 8.48099,-5.7701 1.81621,-0.80557 5.22514,-1.93964 6.61787,-2.20157 0.39511,-0.0744 0.71798,-0.20099 0.71798,-0.28095 0,-0.2958 -2.43272,-0.85985 -4.73996,-1.09914 -2.78038,-0.28837 -6.43029,-0.0383 -10.01552,0.68676 l -2.21965,0.44853 -1.4031,-0.43539 c -5.93435,-1.83801 -12.55436,-2.44609 -16.41488,-1.50824 -2.88093,0.69987 -5.20014,3.7165 -8.18197,6.83145 -7.53101,7.86719 -0.0984,15.82494 -2.15065,19.98998 -6.14821,12.47788 -4.45052,-12.99033 -5.38071,-12.12181 -7.62108,7.11587 -10.05845,6.3004 -13.26696,7.69566 -0.91236,0.39674 -2.01064,0.63071 -3.94641,0.8412 -9.11524,0.99117 -16.30424,2.99266 -23.29562,6.48643 -1.48931,0.74423 -2.70761,1.30764 -2.70761,1.25194 0,-0.19997 4.56713,-3.55949 6.29913,-4.63317 0.97261,-0.60291 2.34043,-1.36229 3.03949,-1.68732 0.69905,-0.32503 1.27166,-0.67302 1.27166,-0.77384 0,-0.10076 -0.83669,-1.89921 -1.8582,-3.99734 -6.28661,-12.91206 -11.76146,-24.74792 -14.39239,-31.11122 -0.76394,-1.84768 -2.60237,-6.618 -4.08606,-10.60207 -4.85596,-13.03927 -6.37405,-16.74393 -8.46621,-20.66688 -1.59914,-2.99854 -3.01074,-4.53349 -4.1682,-4.55101 z m 87.23004,52.85917 c 0.25103,-0.0147 0.52085,0.0193 0.80505,0.11336 1.48702,0.49239 1.56076,2.62937 0.11172,3.22843 -0.85413,0.35314 -0.68416,0.35139 -1.54932,0.008 -1.94003,-0.76996 -1.12469,-3.24695 0.63255,-3.35001 z m -58.87901,49.31201 c -0.1699,-0.0381 -0.25721,0.047 -0.39431,0.22508 -0.45745,0.59424 -2.07007,4.69338 -2.33137,5.92618 -0.2338,1.10312 -0.22422,1.13779 0.88392,3.25472 0.61598,1.17674 2.85015,4.87908 4.96504,8.22798 4.95992,7.85395 6.17836,9.81155 7.62501,12.12838 -29.35874,5.95523 -51.45772,31.90832 -51.45772,63.02421 v 79.54096 c 0,35.51756 28.7931,64.309 64.31065,64.309 35.51757,0 64.30901,-28.79144 64.30901,-64.309 v -79.54096 c 0,-31.08709 -22.05615,-57.02274 -51.37393,-63.00942 -1.10983,-1.97406 -2.38991,-4.2555 -2.97541,-5.30843 -0.67736,-1.21811 -2.05119,-3.65237 -3.05263,-5.41029 l -1.82041,-3.19721 0.76891,-2.26237 c 0.90602,-2.66648 1.46717,-5.31856 1.46717,-6.93003 0,-1.15023 -0.004,-1.15585 -0.6079,-1.03671 -0.33431,0.0659 -1.68306,0.23573 -2.99842,0.37624 l -2.39216,0.25466 -0.61775,0.85763 c -0.85662,1.18806 -1.47,2.37826 -1.76783,3.42887 -0.42181,1.48794 -0.17693,1.94288 8.78987,16.20787 0.80597,1.28218 0.80168,1.31477 1.46552,2.38394 -3.00398,-0.43022 -6.07104,-0.6654 -9.19404,-0.6654 -3.44316,0 -6.82072,0.2774 -10.11739,0.79848 l -1.79083,-3.17585 c -2.61386,-4.63725 -5.51877,-9.80839 -6.45522,-11.49256 l -1.70211,-3.06249 0.76891,-1.94363 c 1.09269,-2.76324 1.45244,-4.25724 1.3768,-5.71917 l -0.0674,-1.27494 -1.86312,-0.71305 c -1.0253,-0.39216 -2.31164,-1.01376 -2.85877,-1.38009 -0.46894,-0.31396 -0.72223,-0.47451 -0.89213,-0.5126 z m 23.60122,41.19575 c 28.69216,0 51.59245,22.89864 51.59245,51.5908 v 79.54096 c 0,28.69216 -22.90029,51.59244 -51.59245,51.59244 -28.69216,0 -51.59409,-22.90028 -51.59409,-51.59244 v -79.54096 c 0,-28.69216 22.90193,-51.5908 51.59409,-51.5908 z m -31.17201,29.18238 v 57.48412 h 13.07145 v -34.62717 h 1.16322 l 12.65906,34.62717 h 10.60863 l 12.65906,-34.62717 h 1.16322 v 34.62717 h 13.07145 v -57.48412 h -17.44995 l -14.23467,40.3069 h -1.02685 l -14.23467,-40.3069 z m 20.18878,66.87368 -22.24084,57.48412 h 14.09665 l 3.55867,-9.64914 h 28.33132 l 3.55867,9.64914 h 14.16566 l -22.30985,-57.48412 z m 8.27891,12.93507 h 2.60082 l 9.03303,24.56729 h -20.66688 z" /></g></g></g></g></svg>
