<?xml version="1.0" encoding="UTF-8" standalone="no"?>
<!-- Created with Inkscape (http://www.inkscape.org/) -->

<svg
   width="41.554127mm"
   height="106.56582mm"
   viewBox="0 0 41.554127 106.56582"
   version="1.1"
   id="svg1"
   xml:space="preserve"
   inkscape:version="1.3.2 (091e20e, 2023-11-25, custom)"
   sodipodi:docname="logo-vertical-white.svg"
   xmlns:inkscape="http://www.inkscape.org/namespaces/inkscape"
   xmlns:sodipodi="http://sodipodi.sourceforge.net/DTD/sodipodi-0.dtd"
   xmlns="http://www.w3.org/2000/svg"
   xmlns:svg="http://www.w3.org/2000/svg"><sodipodi:namedview
     id="namedview1"
     pagecolor="#ffffff"
     bordercolor="#eeeeee"
     borderopacity="1"
     inkscape:showpageshadow="0"
     inkscape:pageopacity="0"
     inkscape:pagecheckerboard="0"
     inkscape:deskcolor="#505050"
     inkscape:document-units="mm"
     inkscape:zoom="1.0469406"
     inkscape:cx="173.83985"
     inkscape:cy="260.28219"
     inkscape:window-width="1920"
     inkscape:window-height="1009"
     inkscape:window-x="-8"
     inkscape:window-y="-8"
     inkscape:window-maximized="1"
     inkscape:current-layer="text2-3" /><defs
     id="defs1" /><g
     inkscape:label="Layer 1"
     inkscape:groupmode="layer"
     id="layer1"
     transform="translate(-34.969865,-148.5)"><g
       id="g4"
       transform="matrix(0.31453119,0,0,0.31453119,294.10176,98.214953)"
       style="stroke-width:3.17933"><g
         id="g1"
         transform="translate(-74.995576,-202.2608)"><g
           id="g7"
           transform="matrix(0.71896389,0,0,0.71896389,-131.77236,-30.174468)"
           style="stroke-width:4.4221"
           inkscape:export-filename="full.svg"
           inkscape:export-xdpi="96"
           inkscape:export-ydpi="96"><path
             style="fill:#000000;stroke-width:4.4221"
             d="m -453.38504,202.49284 -2.52981,-4.94772 c -1.3914,-2.72125 -3.16409,-6.20364 -3.93931,-7.73865 -0.77522,-1.535 -2.34724,-4.60337 -3.49339,-6.81859 l -2.08391,-4.02768 0.87995,-2.85149 c 1.03692,-3.36014 1.67966,-6.70171 1.67966,-8.7324 0,-1.44945 -0.004,-1.45606 -0.69569,-1.30595 -0.38263,0.083 -1.92739,0.29576 -3.43278,0.47284 l -2.73709,0.32198 -0.70678,1.07935 c -0.98038,1.49715 -1.68356,2.99855 -2.02442,4.32246 -0.48275,1.87502 -0.20099,2.44694 10.06128,20.42284 2.94473,5.15815 5.35406,9.47416 5.35406,9.59115 -7.44944,0.33384 -14.92893,0.20732 -22.38885,0.20466 l -5.43911,-10.62469 c -2.9915,-5.84358 -6.31597,-12.36112 -7.38772,-14.48343 l -1.94862,-3.85873 0.87926,-2.44822 c 1.25056,-3.48207 1.66222,-5.36507 1.57565,-7.2073 l -0.0755,-1.60773 -2.13348,-0.89856 c -1.17343,-0.49421 -2.64582,-1.27624 -3.272,-1.73786 -1.07338,-0.79128 -1.15757,-0.81206 -1.47138,-0.36322 -0.52353,0.74881 -2.36937,5.91523 -2.66842,7.46876 -0.26758,1.39007 -0.25689,1.43342 1.01135,4.10105 0.70498,1.48287 3.26213,6.14894 5.68257,10.36904 7.83415,13.65905 11.95684,20.87928 12.04302,21.09141 8.39355,0.20133 21.87948,0.88347 29.2615,0.20668 z m 6.78522,-45.00133 c 3.21619,-0.95909 5.82751,-2.72314 8.67974,-5.86351 2.33673,-2.57278 3.65637,-4.63232 5.28258,-8.24444 1.51622,-3.36781 2.6489,-7.01824 3.41452,-11.00447 2.71925,-14.15775 6.67449,-23.12273 13.26507,-30.06666 3.04969,-3.213194 6.14639,-5.533105 9.70664,-7.271825 2.07862,-1.01513 5.97952,-2.44397 7.57346,-2.774046 0.4522,-0.0937 0.82218,-0.2527 0.82218,-0.35346 0,-0.37274 -2.7855,-1.08404 -5.42608,-1.38559 -3.18207,-0.36338 -7.35877,-0.0478 -11.46198,0.86595 l -2.53966,0.56558 -1.60706,-0.54805 c -6.79171,-2.31615 -14.36723,-3.0827 -18.7855,-1.90088 -3.29715,0.88194 -5.95198,4.683066 -9.36462,8.608353 -8.61902,9.913798 -0.11288,19.942128 -2.4616,25.190658 -7.03646,15.7239 -5.09285,-16.37131 -6.15742,-15.27686 -8.72212,8.967 -11.51207,7.93967 -15.18414,9.6979 -1.04415,0.49995 -2.30123,0.79506 -4.51666,1.0603 -10.43215,1.24902 -18.6589,3.7713 -26.66036,8.17395 -1.70446,0.93785 -3.09901,1.64776 -3.09901,1.57757 0,-0.25199 5.22774,-4.48479 7.20996,-5.83777 1.11312,-0.75976 2.67845,-1.7165 3.4785,-2.12608 0.80005,-0.40958 1.45464,-0.84862 1.45464,-0.97566 0,-0.12703 -0.95655,-2.39418 -2.12565,-5.03811 -7.19486,-16.271038 -13.46101,-31.184306 -16.47204,-39.202966 -0.87429,-2.32834 -2.97894,-8.34099 -4.67699,-13.36146 -5.55752,-16.43134 -7.29435,-21.09996 -9.68876,-26.04344 -2.44026,-5.03812 -4.49983,-6.7957 -5.99563,-5.11651 -0.72467,0.81352 -0.85344,1.54028 -0.66202,3.7365 l 0.16484,1.89116 -1.25026,-1.98438 c -1.50733,-2.39238 -1.93361,-2.91759 -2.97183,-3.66153 -1.03592,-0.74229 -2.00636,-0.74206 -2.38638,5.7e-4 -0.55709,1.08868 0.58299,4.79751 3.1677,10.30495 0.7778,1.65732 1.21358,2.71565 0.96841,2.35184 -5.56974,-8.26473 -9.75388,-12.2631 -12.30839,-11.76189 -1.44787,0.28407 -1.7697,0.88011 -1.59923,2.96184 0.51932,6.34179 10.21189,26.83304 27.56568,58.277141 2.3692,4.29286 5.52908,9.956595 7.02193,12.586085 2.84797,5.01633 3.57915,6.40055 2.98468,5.65036 -0.18161,-0.22917 -2.08261,-2.88107 -4.22446,-5.89311 -2.14184,-3.01205 -3.92317,-5.443917 -3.9585,-5.404167 -0.0928,0.10451 1.03078,7.846197 1.79329,12.355327 1.51323,8.94855 3.32946,16.54522 4.57303,19.12743 0.33056,0.68639 0.60101,1.34516 0.60101,1.46393 0,0.11878 -2.271,1.33929 -5.04668,2.71226 -2.77568,1.37297 -5.0131,2.53144 -4.97203,2.57439 0.0411,0.0429 1.77134,-0.34857 3.84503,-0.87004 15.89361,-3.99679 32.37248,-7.40954 43.36195,-8.9802 4.11457,-0.58807 11.7051,-0.82453 13.33562,-0.41544 1.5168,0.38057 2.31308,1.16776 2.51816,2.4894 0.28849,1.8593 -0.7788,3.18524 -3.48364,4.32788 -4.63184,1.95668 -11.11019,2.85993 -29.95235,4.17616 -18.0075,1.25792 -26.42485,2.55515 -34.58481,5.32999 -4.882,1.66016 -11.40298,5.27999 -12.87732,7.14827 -0.32531,0.41223 -0.22011,0.43291 1.41952,0.27907 6.12905,-0.57506 11.48318,-0.76209 18.26313,-0.63796 7.75091,0.1419 10.04895,0.36809 16.6483,1.63864 5.57631,1.07358 12.19258,1.95859 16.79031,2.24592 12.01941,0.75113 21.01158,-1.71837 26.61635,-7.30959 l 1.44421,-1.44071 0.68389,2.24629 c 0.80718,2.65119 2.53301,5.85221 3.9597,7.34433 2.15838,2.25738 4.52244,2.79416 7.88703,1.79081 z m 14.99728,-56.43709 c -2.5375,-1.108857 -0.95661,-5.028615 1.64549,-4.079915 1.70184,0.62047 1.78693,3.313895 0.12854,4.068815 -0.97755,0.44499 -0.78388,0.44378 -1.77403,0.0111 z"
             id="path4"
             sodipodi:nodetypes="cssscsssscsssscsscsscssssssccsssssscssscsssssscssssscssssscssssssssssscssssccsssssssssssscsssssss" /><text
             xml:space="preserve"
             style="font-style:italic;font-variant:normal;font-weight:normal;font-stretch:normal;font-size:82.1196px;line-height:1.2;font-family:'Gotham Office';-inkscape-font-specification:'Gotham Office Italic';text-decoration-color:#000000;letter-spacing:0px;word-spacing:0px;fill:#000000;stroke:none;stroke-width:2.21104;stroke-linecap:round;stroke-miterlimit:9.8;paint-order:fill markers stroke"
             x="-769.47522"
             y="258.3902"
             id="text2"><tspan
               sodipodi:role="line"
               id="tspan2"
               x="-769.47522"
               y="258.3902"
               style="font-style:normal;font-variant:normal;font-weight:normal;font-stretch:normal;font-size:82.1196px;font-family:'FONTSPRING DEMO - Integral CF';-inkscape-font-specification:'FONTSPRING DEMO - Integral CF, Normal';font-variant-ligatures:normal;font-variant-caps:normal;font-variant-numeric:normal;font-variant-east-asian:normal;fill:#000000;stroke:none;stroke-width:2.21106">magpies</tspan><tspan
               sodipodi:role="line"
               x="-769.47522"
               y="361.62628"
               style="font-style:normal;font-variant:normal;font-weight:normal;font-stretch:normal;font-size:82.1196px;font-family:'FONTSPRING DEMO - Integral CF';-inkscape-font-specification:'FONTSPRING DEMO - Integral CF, Normal';font-variant-ligatures:normal;font-variant-caps:normal;font-variant-numeric:normal;font-variant-east-asian:normal;fill:#000000;stroke:none;stroke-width:2.21106"
               id="tspan3"
               dy="-36.642567">agency</tspan></text></g><g
           id="g6"><g
             id="text2-3"
             style="font-style:italic;font-size:82.1196px;font-family:'Gotham Office';-inkscape-font-specification:'Gotham Office Italic';letter-spacing:0px;word-spacing:0px;stroke-width:1.58966;stroke-linecap:round;stroke-miterlimit:9.8;paint-order:fill markers stroke"
             aria-label="M&#10;a"><path
               id="path1"
               style="-inkscape-font-specification:'FONTSPRING DEMO - Integral CF, Normal';stroke-width:1.58967;fill:#ffffff"
               d="M -733.01852 362.13381 C -733.40434 362.12797 -733.76135 362.29028 -734.08809 362.62341 C -734.72128 363.26899 -734.83368 363.84613 -734.66642 365.58897 L -734.52348 367.09064 L -735.61605 365.51503 C -736.93311 363.61653 -737.30477 363.19899 -738.21194 362.60862 C -739.11708 362.01958 -739.96482 362.02093 -740.29687 362.61027 C -740.78364 363.47419 -739.78854 366.41682 -737.53011 370.78731 C -736.85051 372.1025 -736.46976 372.94243 -736.68398 372.65372 C -741.55062 366.09515 -745.20515 362.92229 -747.4372 363.32003 C -748.70229 363.54547 -748.98432 364.01915 -748.83536 365.67111 C -748.38161 370.70372 -739.9126 386.96452 -724.74947 411.91735 C -722.67934 415.32398 -719.91902 419.81828 -718.61463 421.90494 C -716.12616 425.88571 -715.48616 426.98391 -716.0056 426.3886 C -716.16427 426.20673 -717.82588 424.10295 -719.69735 421.71271 C -721.56881 419.32248 -723.12492 417.39138 -723.15579 417.42293 C -723.23689 417.50593 -722.25467 423.64989 -721.5884 427.22815 C -720.2662 434.32939 -718.67931 440.35838 -717.59271 442.40752 C -717.30388 442.95221 -717.0686 443.47484 -717.0686 443.5691 C -717.0686 443.6634 -719.05303 444.63185 -721.47832 445.72139 C -723.9036 446.81093 -725.85822 447.7295 -725.82233 447.7636 C -725.78643 447.7976 -724.27437 447.48738 -722.46246 447.07355 C -708.57519 443.90185 -694.17622 441.19442 -684.574 439.948 C -680.97884 439.48134 -674.34677 439.29313 -672.92208 439.61777 C -671.59675 439.91978 -670.90133 440.54382 -670.72215 441.59261 C -670.47008 443.06809 -671.40154 444.12129 -673.76492 445.02806 C -677.81207 446.5808 -683.47377 447.2974 -699.93739 448.34192 C -715.67169 449.34014 -723.02658 450.36891 -730.15647 452.57092 C -734.42219 453.88836 -740.1193 456.76147 -741.40751 458.24408 C -741.69177 458.5712 -741.59973 458.58795 -740.16707 458.46588 C -734.81173 458.00952 -730.13466 457.86136 -724.21058 457.95985 C -717.43811 458.07245 -715.43003 458.25118 -709.66375 459.25944 C -704.79137 460.11138 -699.00939 460.81403 -694.99205 461.04205 C -684.48993 461.63813 -676.63311 459.67772 -671.73586 455.24074 L -670.47406 454.09723 L -669.87602 455.87985 C -669.17075 457.98373 -667.66252 460.52501 -666.41593 461.7091 C -664.53001 463.50046 -662.46519 463.92647 -659.52533 463.13027 C -656.71513 462.36917 -654.43358 460.96947 -651.94139 458.47738 C -649.89966 456.43573 -648.74557 454.79987 -647.32466 451.93345 C -645.99983 449.26088 -645.01001 446.36439 -644.34103 443.20108 C -641.96505 431.96603 -638.51016 424.85236 -632.75154 419.34191 C -630.08682 416.79205 -627.38137 414.95158 -624.27055 413.57181 C -622.45434 412.76624 -619.04541 411.63217 -617.65268 411.37024 C -617.25757 411.29584 -616.9347 411.16925 -616.9347 411.08929 C -616.9347 410.79349 -619.36742 410.22944 -621.67466 409.99015 C -624.45504 409.70178 -628.10495 409.95183 -631.69018 410.67691 L -633.90983 411.12544 L -635.31293 410.69005 C -641.24728 408.85204 -647.86729 408.24396 -651.72781 409.18181 C -654.60874 409.88168 -656.92795 412.89831 -659.90978 416.01326 C -667.44079 423.88045 -660.00817 431.8382 -662.06043 436.00324 C -668.20864 448.48112 -666.51095 423.01291 -667.44114 423.88143 C -675.06222 430.9973 -677.49959 430.18183 -680.7081 431.57709 C -681.62046 431.97383 -682.71874 432.2078 -684.65451 432.41829 C -693.76975 433.40946 -700.95875 435.41095 -707.95013 438.90472 C -709.43944 439.64895 -710.65774 440.21236 -710.65774 440.15666 C -710.65774 439.95669 -706.09061 436.59717 -704.35861 435.52349 C -703.386 434.92058 -702.01818 434.1612 -701.31912 433.83617 C -700.62007 433.51114 -700.04746 433.16315 -700.04746 433.06233 C -700.04746 432.96157 -700.88415 431.16312 -701.90566 429.06499 C -708.19227 416.15293 -713.66712 404.31707 -716.29805 397.95377 C -717.06199 396.10609 -718.90042 391.33577 -720.38411 387.3517 C -725.24007 374.31243 -726.75816 370.60777 -728.85032 366.68482 C -730.44946 363.68628 -731.86106 362.15133 -733.01852 362.13381 z M -645.78848 414.99298 C -645.53745 414.97826 -645.26763 415.01224 -644.98343 415.10634 C -643.49641 415.59873 -643.42267 417.73571 -644.87171 418.33477 C -645.72584 418.68791 -645.55587 418.68616 -646.42103 418.34299 C -648.36106 417.57303 -647.54572 415.09604 -645.78848 414.99298 z M -704.66749 464.30499 C -704.83739 464.2669 -704.9247 464.35198 -705.0618 464.53007 C -705.51925 465.12431 -707.13187 469.22345 -707.39317 470.45625 C -707.62697 471.55937 -707.61739 471.59404 -706.50925 473.71097 C -705.89327 474.88771 -703.6591 478.59005 -701.54421 481.93895 C -696.58429 489.7929 -695.36585 491.7505 -693.9192 494.06733 C -723.27794 500.02256 -745.37692 525.97565 -745.37692 557.09154 L -745.37692 636.6325 C -745.37692 672.15006 -716.58382 700.9415 -681.06627 700.9415 C -645.5487 700.9415 -616.75726 672.15006 -616.75726 636.6325 L -616.75726 557.09154 C -616.75726 526.00445 -638.81341 500.0688 -668.13119 494.08212 C -669.24102 492.10806 -670.5211 489.82662 -671.1066 488.77369 C -671.78396 487.55558 -673.15779 485.12132 -674.15923 483.3634 L -675.97964 480.16619 L -675.21073 477.90382 C -674.30471 475.23734 -673.74356 472.58526 -673.74356 470.97379 C -673.74356 469.82356 -673.74758 469.81794 -674.35146 469.93708 C -674.68577 470.00298 -676.03452 470.17281 -677.34988 470.31332 L -679.74204 470.56798 L -680.35979 471.42561 C -681.21641 472.61367 -681.82979 473.80387 -682.12762 474.85448 C -682.54943 476.34242 -682.30455 476.79736 -673.33775 491.06235 C -672.53178 492.34453 -672.53607 492.37712 -671.87223 493.44629 C -674.87621 493.01607 -677.94327 492.78089 -681.06627 492.78089 C -684.50943 492.78089 -687.88699 493.05829 -691.18366 493.57937 L -692.97449 490.40352 C -695.58835 485.76627 -698.49326 480.59513 -699.42971 478.91096 L -701.13182 475.84847 L -700.36291 473.90484 C -699.27022 471.1416 -698.91047 469.6476 -698.98611 468.18567 L -699.05347 466.91073 L -700.91659 466.19768 C -701.94189 465.80552 -703.22823 465.18392 -703.77536 464.81759 C -704.2443 464.50363 -704.49759 464.34308 -704.66749 464.30499 z M -681.06627 505.50074 C -652.37411 505.50074 -629.47382 528.39938 -629.47382 557.09154 L -629.47382 636.6325 C -629.47382 665.32466 -652.37411 688.22494 -681.06627 688.22494 C -709.75843 688.22494 -732.66036 665.32466 -732.66036 636.6325 L -732.66036 557.09154 C -732.66036 528.39938 -709.75843 505.50074 -681.06627 505.50074 z M -712.23828 534.68312 L -712.23828 592.16724 L -699.16683 592.16724 L -699.16683 557.54007 L -698.00361 557.54007 L -685.34455 592.16724 L -674.73592 592.16724 L -662.07686 557.54007 L -660.91364 557.54007 L -660.91364 592.16724 L -647.84219 592.16724 L -647.84219 534.68312 L -665.29214 534.68312 L -679.52681 574.99002 L -680.55366 574.99002 L -694.78833 534.68312 L -712.23828 534.68312 z M -692.0495 601.5568 L -714.29034 659.04092 L -700.19369 659.04092 L -696.63502 649.39178 L -668.3037 649.39178 L -664.74503 659.04092 L -650.57937 659.04092 L -672.88922 601.5568 L -692.0495 601.5568 z M -683.77059 614.49187 L -681.16977 614.49187 L -672.13674 639.05916 L -692.80362 639.05916 L -683.77059 614.49187 z " /></g><g
             id="g3"
             inkscape:export-filename="vert.png"
             inkscape:export-xdpi="96"
             inkscape:export-ydpi="96" /></g></g></g></g></svg>
