<?xml version="1.0" encoding="UTF-8" standalone="no"?>
<!-- Created with Inkscape (http://www.inkscape.org/) -->

<svg
   width="68.031082mm"
   height="80.810524mm"
   viewBox="0 0 68.031082 80.810524"
   version="1.1"
   id="svg1"
   xml:space="preserve"
   inkscape:version="1.3.2 (091e20e, 2023-11-25, custom)"
   sodipodi:docname="logo-horizontal-white.svg"
   xmlns:inkscape="http://www.inkscape.org/namespaces/inkscape"
   xmlns:sodipodi="http://sodipodi.sourceforge.net/DTD/sodipodi-0.dtd"
   xmlns="http://www.w3.org/2000/svg"
   xmlns:svg="http://www.w3.org/2000/svg"><sodipodi:namedview
     id="namedview1"
     pagecolor="#ffffff"
     bordercolor="#eeeeee"
     borderopacity="1"
     inkscape:showpageshadow="0"
     inkscape:pageopacity="0"
     inkscape:pagecheckerboard="0"
     inkscape:deskcolor="#505050"
     inkscape:document-units="mm"
     inkscape:zoom="0.74029882"
     inkscape:cx="345.80631"
     inkscape:cy="427.53006"
     inkscape:window-width="1920"
     inkscape:window-height="1009"
     inkscape:window-x="-8"
     inkscape:window-y="-8"
     inkscape:window-maximized="1"
     inkscape:current-layer="g2" /><defs
     id="defs1" /><g
     inkscape:label="Layer 1"
     inkscape:groupmode="layer"
     id="layer1"
     transform="translate(-110.76688,-148.5)"><g
       id="g4"
       transform="matrix(0.31453119,0,0,0.31453119,294.10176,98.214953)"
       style="stroke-width:3.17933"><g
         id="g1"
         transform="translate(-74.995576,-202.2608)"><g
           id="g7"
           transform="matrix(0.71896389,0,0,0.71896389,-131.77236,-30.174468)"
           style="stroke-width:4.4221"
           inkscape:export-filename="full.svg"
           inkscape:export-xdpi="96"
           inkscape:export-ydpi="96"><path
             style="fill:#000000;stroke-width:4.4221"
             d="m -453.38504,202.49284 -2.52981,-4.94772 c -1.3914,-2.72125 -3.16409,-6.20364 -3.93931,-7.73865 -0.77522,-1.535 -2.34724,-4.60337 -3.49339,-6.81859 l -2.08391,-4.02768 0.87995,-2.85149 c 1.03692,-3.36014 1.67966,-6.70171 1.67966,-8.7324 0,-1.44945 -0.004,-1.45606 -0.69569,-1.30595 -0.38263,0.083 -1.92739,0.29576 -3.43278,0.47284 l -2.73709,0.32198 -0.70678,1.07935 c -0.98038,1.49715 -1.68356,2.99855 -2.02442,4.32246 -0.48275,1.87502 -0.20099,2.44694 10.06128,20.42284 2.94473,5.15815 5.35406,9.47416 5.35406,9.59115 -7.44944,0.33384 -14.92893,0.20732 -22.38885,0.20466 l -5.43911,-10.62469 c -2.9915,-5.84358 -6.31597,-12.36112 -7.38772,-14.48343 l -1.94862,-3.85873 0.87926,-2.44822 c 1.25056,-3.48207 1.66222,-5.36507 1.57565,-7.2073 l -0.0755,-1.60773 -2.13348,-0.89856 c -1.17343,-0.49421 -2.64582,-1.27624 -3.272,-1.73786 -1.07338,-0.79128 -1.15757,-0.81206 -1.47138,-0.36322 -0.52353,0.74881 -2.36937,5.91523 -2.66842,7.46876 -0.26758,1.39007 -0.25689,1.43342 1.01135,4.10105 0.70498,1.48287 3.26213,6.14894 5.68257,10.36904 7.83415,13.65905 11.95684,20.87928 12.04302,21.09141 8.39355,0.20133 21.87948,0.88347 29.2615,0.20668 z m 6.78522,-45.00133 c 3.21619,-0.95909 5.82751,-2.72314 8.67974,-5.86351 2.33673,-2.57278 3.65637,-4.63232 5.28258,-8.24444 1.51622,-3.36781 2.6489,-7.01824 3.41452,-11.00447 2.71925,-14.15775 6.67449,-23.12273 13.26507,-30.06666 3.04969,-3.213194 6.14639,-5.533105 9.70664,-7.271825 2.07862,-1.01513 5.97952,-2.44397 7.57346,-2.774046 0.4522,-0.0937 0.82218,-0.2527 0.82218,-0.35346 0,-0.37274 -2.7855,-1.08404 -5.42608,-1.38559 -3.18207,-0.36338 -7.35877,-0.0478 -11.46198,0.86595 l -2.53966,0.56558 -1.60706,-0.54805 c -6.79171,-2.31615 -14.36723,-3.0827 -18.7855,-1.90088 -3.29715,0.88194 -5.95198,4.683066 -9.36462,8.608353 -8.61902,9.913798 -0.11288,19.942128 -2.4616,25.190658 -7.03646,15.7239 -5.09285,-16.37131 -6.15742,-15.27686 -8.72212,8.967 -11.51207,7.93967 -15.18414,9.6979 -1.04415,0.49995 -2.30123,0.79506 -4.51666,1.0603 -10.43215,1.24902 -18.6589,3.7713 -26.66036,8.17395 -1.70446,0.93785 -3.09901,1.64776 -3.09901,1.57757 0,-0.25199 5.22774,-4.48479 7.20996,-5.83777 1.11312,-0.75976 2.67845,-1.7165 3.4785,-2.12608 0.80005,-0.40958 1.45464,-0.84862 1.45464,-0.97566 0,-0.12703 -0.95655,-2.39418 -2.12565,-5.03811 -7.19486,-16.271038 -13.46101,-31.184306 -16.47204,-39.202966 -0.87429,-2.32834 -2.97894,-8.34099 -4.67699,-13.36146 -5.55752,-16.43134 -7.29435,-21.09996 -9.68876,-26.04344 -2.44026,-5.03812 -4.49983,-6.7957 -5.99563,-5.11651 -0.72467,0.81352 -0.85344,1.54028 -0.66202,3.7365 l 0.16484,1.89116 -1.25026,-1.98438 c -1.50733,-2.39238 -1.93361,-2.91759 -2.97183,-3.66153 -1.03592,-0.74229 -2.00636,-0.74206 -2.38638,5.7e-4 -0.55709,1.08868 0.58299,4.79751 3.1677,10.30495 0.7778,1.65732 1.21358,2.71565 0.96841,2.35184 -5.56974,-8.26473 -9.75388,-12.2631 -12.30839,-11.76189 -1.44787,0.28407 -1.7697,0.88011 -1.59923,2.96184 0.51932,6.34179 10.21189,26.83304 27.56568,58.277141 2.3692,4.29286 5.52908,9.956595 7.02193,12.586085 2.84797,5.01633 3.57915,6.40055 2.98468,5.65036 -0.18161,-0.22917 -2.08261,-2.88107 -4.22446,-5.89311 -2.14184,-3.01205 -3.92317,-5.443917 -3.9585,-5.404167 -0.0928,0.10451 1.03078,7.846197 1.79329,12.355327 1.51323,8.94855 3.32946,16.54522 4.57303,19.12743 0.33056,0.68639 0.60101,1.34516 0.60101,1.46393 0,0.11878 -2.271,1.33929 -5.04668,2.71226 -2.77568,1.37297 -5.0131,2.53144 -4.97203,2.57439 0.0411,0.0429 1.77134,-0.34857 3.84503,-0.87004 15.89361,-3.99679 32.37248,-7.40954 43.36195,-8.9802 4.11457,-0.58807 11.7051,-0.82453 13.33562,-0.41544 1.5168,0.38057 2.31308,1.16776 2.51816,2.4894 0.28849,1.8593 -0.7788,3.18524 -3.48364,4.32788 -4.63184,1.95668 -11.11019,2.85993 -29.95235,4.17616 -18.0075,1.25792 -26.42485,2.55515 -34.58481,5.32999 -4.882,1.66016 -11.40298,5.27999 -12.87732,7.14827 -0.32531,0.41223 -0.22011,0.43291 1.41952,0.27907 6.12905,-0.57506 11.48318,-0.76209 18.26313,-0.63796 7.75091,0.1419 10.04895,0.36809 16.6483,1.63864 5.57631,1.07358 12.19258,1.95859 16.79031,2.24592 12.01941,0.75113 21.01158,-1.71837 26.61635,-7.30959 l 1.44421,-1.44071 0.68389,2.24629 c 0.80718,2.65119 2.53301,5.85221 3.9597,7.34433 2.15838,2.25738 4.52244,2.79416 7.88703,1.79081 z m 14.99728,-56.43709 c -2.5375,-1.108857 -0.95661,-5.028615 1.64549,-4.079915 1.70184,0.62047 1.78693,3.313895 0.12854,4.068815 -0.97755,0.44499 -0.78388,0.44378 -1.77403,0.0111 z"
             id="path4"
             sodipodi:nodetypes="cssscsssscsssscsscsscssssssccsssssscssscsssssscssssscssssscssssssssssscssssccsssssssssssscsssssss" /><text
             xml:space="preserve"
             style="font-style:italic;font-variant:normal;font-weight:normal;font-stretch:normal;font-size:82.1196px;line-height:1.2;font-family:'Gotham Office';-inkscape-font-specification:'Gotham Office Italic';text-decoration-color:#000000;letter-spacing:0px;word-spacing:0px;fill:#000000;stroke:none;stroke-width:2.21104;stroke-linecap:round;stroke-miterlimit:9.8;paint-order:fill markers stroke"
             x="-769.47522"
             y="258.3902"
             id="text2"><tspan
               sodipodi:role="line"
               id="tspan2"
               x="-769.47522"
               y="258.3902"
               style="font-style:normal;font-variant:normal;font-weight:normal;font-stretch:normal;font-size:82.1196px;font-family:'FONTSPRING DEMO - Integral CF';-inkscape-font-specification:'FONTSPRING DEMO - Integral CF, Normal';font-variant-ligatures:normal;font-variant-caps:normal;font-variant-numeric:normal;font-variant-east-asian:normal;fill:#000000;stroke:none;stroke-width:2.21106">magpies</tspan><tspan
               sodipodi:role="line"
               x="-769.47522"
               y="361.62628"
               style="font-style:normal;font-variant:normal;font-weight:normal;font-stretch:normal;font-size:82.1196px;font-family:'FONTSPRING DEMO - Integral CF';-inkscape-font-specification:'FONTSPRING DEMO - Integral CF, Normal';font-variant-ligatures:normal;font-variant-caps:normal;font-variant-numeric:normal;font-variant-east-asian:normal;fill:#000000;stroke:none;stroke-width:2.21106"
               id="tspan3"
               dy="-36.642567">agency</tspan></text></g><g
           id="g6"><g
             id="g2"
             inkscape:export-filename="minimal-horizontal.png"
             inkscape:export-xdpi="96"
             inkscape:export-ydpi="96"><path
               id="text5"
               style="-inkscape-font-specification:'FONTSPRING DEMO - Integral CF, Normal';stroke-width:1.58967;stroke-linecap:round;stroke-miterlimit:9.8;paint-order:fill markers stroke;fill:#ffffff"
               d="M -407.67792 362.13381 C -408.06374 362.12797 -408.42075 362.29028 -408.74749 362.62341 C -409.38068 363.26899 -409.49472 363.84613 -409.32746 365.58897 L -409.18288 367.09064 L -410.27545 365.51503 C -411.59251 363.61653 -411.96417 363.19899 -412.87134 362.60862 C -413.77648 362.01958 -414.62421 362.02093 -414.95626 362.61027 C -415.44303 363.47419 -414.44793 366.41682 -412.18951 370.78731 C -411.50991 372.1025 -411.12916 372.94243 -411.34338 372.65372 C -416.21001 366.09515 -419.86619 362.92229 -422.09824 363.32003 C -423.36333 363.54547 -423.64372 364.01915 -423.49476 365.67111 C -423.041 370.70372 -414.57199 386.96452 -399.40887 411.91735 C -397.33874 415.32398 -394.57842 419.81828 -393.27403 421.90494 C -390.78556 425.88571 -390.14556 426.98391 -390.665 426.3886 C -390.82367 426.20673 -392.48528 424.10295 -394.35674 421.71271 C -396.2282 419.32248 -397.78432 417.39138 -397.81519 417.42293 C -397.89629 417.50593 -396.91571 423.64989 -396.24944 427.22815 C -394.92724 434.32939 -393.34034 440.35838 -392.25375 442.40752 C -391.96492 442.95221 -391.728 443.47484 -391.728 443.5691 C -391.728 443.6634 -393.71242 444.63185 -396.13772 445.72139 C -398.563 446.81093 -400.51761 447.7295 -400.48172 447.7636 C -400.44582 447.7976 -398.93376 447.48738 -397.12186 447.07355 C -383.23459 443.90185 -368.83562 441.19442 -359.2334 439.948 C -355.63823 439.48134 -349.00617 439.29313 -347.58148 439.61777 C -346.25615 439.91978 -345.56072 440.54382 -345.38154 441.59261 C -345.12947 443.06809 -346.06257 444.12129 -348.42596 445.02806 C -352.47311 446.5808 -358.13317 447.2974 -374.59678 448.34192 C -390.33109 449.34014 -397.68598 450.36891 -404.81587 452.57092 C -409.08159 453.88836 -414.7787 456.76147 -416.06691 458.24408 C -416.35117 458.5712 -416.25913 458.58795 -414.82647 458.46588 C -409.47112 458.00952 -404.79406 457.86136 -398.86997 457.95985 C -392.09751 458.07245 -390.08943 458.25118 -384.32314 459.25944 C -379.45077 460.11138 -373.66879 460.81403 -369.65145 461.04205 C -359.14932 461.63813 -351.29251 459.67772 -346.39525 455.24074 L -345.13346 454.09723 L -344.53542 455.87985 C -343.83015 457.98373 -342.32356 460.52501 -341.07697 461.7091 C -339.19105 463.50046 -337.12458 463.92647 -334.18473 463.13027 C -331.37453 462.36917 -329.09298 460.96947 -326.60079 458.47738 C -324.55905 456.43573 -323.4066 454.79987 -321.9857 451.93345 C -320.66087 449.26088 -319.67105 446.36439 -319.00207 443.20108 C -316.62609 431.96603 -313.16955 424.85236 -307.41094 419.34191 C -304.74622 416.79205 -302.04077 414.95158 -298.92994 413.57181 C -297.11373 412.76624 -293.70481 411.63217 -292.31207 411.37024 C -291.91696 411.29584 -291.5941 411.16925 -291.5941 411.08929 C -291.5941 410.79349 -294.02846 410.22944 -296.3357 409.99015 C -299.11607 409.70178 -302.76434 409.95183 -306.34958 410.67691 L -308.56923 411.12544 L -309.97397 410.69005 C -315.90832 408.85204 -322.52669 408.24396 -326.3872 409.18181 C -329.26813 409.88168 -331.58734 412.89831 -334.56918 416.01326 C -342.10018 423.88045 -334.66921 431.8382 -336.72147 436.00324 C -342.86968 448.48112 -341.17035 423.01291 -342.10054 423.88143 C -349.72161 430.9973 -352.15899 430.18183 -355.3675 431.57709 C -356.27986 431.97383 -357.37978 432.2078 -359.31555 432.41829 C -368.43079 433.40946 -375.61815 435.41095 -382.60953 438.90472 C -384.09884 439.64895 -385.31714 440.21236 -385.31714 440.15666 C -385.31714 439.95669 -380.75 436.59717 -379.018 435.52349 C -378.0454 434.92058 -376.67758 434.1612 -375.97852 433.83617 C -375.27947 433.51114 -374.70686 433.16315 -374.70686 433.06233 C -374.70686 432.96157 -375.54355 431.16312 -376.56506 429.06499 C -382.85167 416.15293 -388.32652 404.31707 -390.95745 397.95377 C -391.72138 396.10609 -393.55982 391.33577 -395.0435 387.3517 C -399.89947 374.31243 -401.41755 370.60777 -403.50971 366.68482 C -405.10886 363.68628 -406.52046 362.15133 -407.67792 362.13381 z M -320.44788 414.99298 C -320.19685 414.97826 -319.92703 415.01224 -319.64283 415.10634 C -318.15581 415.59873 -318.08207 417.73571 -319.5311 418.33477 C -320.38523 418.68791 -320.21526 418.68616 -321.08042 418.34299 C -323.02045 417.57303 -322.20511 415.09604 -320.44788 414.99298 z M -379.32688 464.30499 C -379.49678 464.2669 -379.58409 464.35198 -379.72119 464.53007 C -380.17864 465.12431 -381.79126 469.22345 -382.05256 470.45625 C -382.28636 471.55937 -382.27679 471.59404 -381.16865 473.71097 C -380.55267 474.88771 -378.3185 478.59005 -376.2036 481.93895 C -372.72781 487.44281 -372.62702 487.62811 -370.86067 490.43802 L -443.57839 490.43802 C -479.09595 490.43802 -507.8874 519.23111 -507.8874 554.74867 C -507.8874 590.26622 -479.09595 619.05604 -443.57839 619.05604 L -364.03743 619.05604 C -328.51988 619.05604 -299.72678 590.26622 -299.72678 554.74867 C -299.72678 526.66977 -317.72843 502.80714 -342.81523 494.03776 C -343.91785 492.07639 -345.18537 489.81784 -345.766 488.77369 C -346.44336 487.55558 -347.81718 485.12132 -348.81863 483.3634 L -350.63904 480.16619 L -349.87013 477.90382 C -348.96411 475.23734 -348.40296 472.58526 -348.40296 470.97379 C -348.40296 469.82356 -348.40698 469.81794 -349.01086 469.93708 C -349.34517 470.00298 -350.69391 470.17281 -352.00927 470.31332 L -354.40143 470.56798 L -355.01919 471.42561 C -355.87581 472.61367 -356.49083 473.80387 -356.78866 474.85448 C -357.21047 476.34242 -356.96395 476.79736 -347.99715 491.06235 C -347.42783 491.96805 -347.46785 491.93498 -346.96208 492.74639 C -352.40148 491.25158 -358.12324 490.43802 -364.03743 490.43802 L -367.61417 490.43802 L -367.63389 490.40352 C -370.24774 485.76627 -373.15266 480.59513 -374.0891 478.91096 L -375.79122 475.84847 L -375.02395 473.90484 C -373.93126 471.1416 -373.57151 469.6476 -373.64715 468.18567 L -373.71286 466.91073 L -375.57599 466.19768 C -376.60129 465.80552 -377.88927 465.18392 -378.43639 464.81759 C -378.90534 464.50363 -379.15698 464.34308 -379.32688 464.30499 z M -443.57839 503.15458 L -364.03743 503.15458 C -335.34527 503.15458 -312.44499 526.05651 -312.44499 554.74867 C -312.44499 583.44083 -335.34527 606.33947 -364.03743 606.33947 L -443.57839 606.33947 C -472.27056 606.33947 -495.16919 583.44083 -495.16919 554.74867 C -495.16919 526.05651 -472.27056 503.15458 -443.57839 503.15458 z M -464.20912 525.01426 L -464.20912 582.49838 L -451.13932 582.49838 L -451.13932 547.87121 L -449.9761 547.87121 L -437.3154 582.49838 L -426.7084 582.49838 L -414.0477 547.87121 L -412.88448 547.87121 L -412.88448 582.49838 L -399.81468 582.49838 L -399.81468 525.01426 L -417.26463 525.01426 L -431.4993 565.32116 L -432.52451 565.32116 L -446.75917 525.01426 L -464.20912 525.01426 z M -373.7408 525.01426 L -395.98164 582.49838 L -381.88498 582.49838 L -378.32632 572.84924 L -349.995 572.84924 L -346.43633 582.49838 L -332.27067 582.49838 L -354.58052 525.01426 L -373.7408 525.01426 z M -365.46024 537.94769 L -362.86107 537.94769 L -353.82804 562.51497 L -374.49327 562.51497 L -365.46024 537.94769 z "
               transform="translate(-1.5719643e-5)" /></g></g></g></g></g></svg>
