<?xml version="1.0" encoding="UTF-8" standalone="no"?>
<!-- Created with Inkscape (http://www.inkscape.org/) -->

<svg
   width="86.707542mm"
   height="67.08963mm"
   viewBox="0 0 86.707542 67.08963"
   version="1.1"
   id="svg1"
   xml:space="preserve"
   inkscape:version="1.3.2 (091e20e, 2023-11-25, custom)"
   sodipodi:docname="full.svg"
   xmlns:inkscape="http://www.inkscape.org/namespaces/inkscape"
   xmlns:sodipodi="http://sodipodi.sourceforge.net/DTD/sodipodi-0.dtd"
   xmlns="http://www.w3.org/2000/svg"
   xmlns:svg="http://www.w3.org/2000/svg"><sodipodi:namedview
     id="namedview1"
     pagecolor="#ffffff"
     bordercolor="#eeeeee"
     borderopacity="1"
     inkscape:showpageshadow="0"
     inkscape:pageopacity="0"
     inkscape:pagecheckerboard="0"
     inkscape:deskcolor="#505050"
     inkscape:document-units="mm"
     inkscape:zoom="0.74029882"
     inkscape:cx="345.80631"
     inkscape:cy="426.17926"
     inkscape:window-width="1920"
     inkscape:window-height="1009"
     inkscape:window-x="-8"
     inkscape:window-y="-8"
     inkscape:window-maximized="1"
     inkscape:current-layer="g6" /><defs
     id="defs1" /><g
     inkscape:label="Layer 1"
     inkscape:groupmode="layer"
     id="layer1"
     transform="translate(-55.261491,-31.941192)"><g
       id="g4"
       transform="matrix(0.31453119,0,0,0.31453119,294.10176,98.214953)"
       style="stroke-width:3.17933"><g
         id="g1"
         transform="translate(-74.995576,-202.2608)"><g
           id="g7"
           transform="matrix(0.71896389,0,0,0.71896389,-131.77236,-30.174468)"
           style="stroke-width:4.4221"
           inkscape:export-filename="full.png"
           inkscape:export-xdpi="96"
           inkscape:export-ydpi="96"><path
             style="fill:#000000;stroke-width:4.4221"
             d="m -453.38504,202.49284 -2.52981,-4.94772 c -1.3914,-2.72125 -3.16409,-6.20364 -3.93931,-7.73865 -0.77522,-1.535 -2.34724,-4.60337 -3.49339,-6.81859 l -2.08391,-4.02768 0.87995,-2.85149 c 1.03692,-3.36014 1.67966,-6.70171 1.67966,-8.7324 0,-1.44945 -0.004,-1.45606 -0.69569,-1.30595 -0.38263,0.083 -1.92739,0.29576 -3.43278,0.47284 l -2.73709,0.32198 -0.70678,1.07935 c -0.98038,1.49715 -1.68356,2.99855 -2.02442,4.32246 -0.48275,1.87502 -0.20099,2.44694 10.06128,20.42284 2.94473,5.15815 5.35406,9.47416 5.35406,9.59115 -7.44944,0.33384 -14.92893,0.20732 -22.38885,0.20466 l -5.43911,-10.62469 c -2.9915,-5.84358 -6.31597,-12.36112 -7.38772,-14.48343 l -1.94862,-3.85873 0.87926,-2.44822 c 1.25056,-3.48207 1.66222,-5.36507 1.57565,-7.2073 l -0.0755,-1.60773 -2.13348,-0.89856 c -1.17343,-0.49421 -2.64582,-1.27624 -3.272,-1.73786 -1.07338,-0.79128 -1.15757,-0.81206 -1.47138,-0.36322 -0.52353,0.74881 -2.36937,5.91523 -2.66842,7.46876 -0.26758,1.39007 -0.25689,1.43342 1.01135,4.10105 0.70498,1.48287 3.26213,6.14894 5.68257,10.36904 7.83415,13.65905 11.95684,20.87928 12.04302,21.09141 8.39355,0.20133 21.87948,0.88347 29.2615,0.20668 z m 6.78522,-45.00133 c 3.21619,-0.95909 5.82751,-2.72314 8.67974,-5.86351 2.33673,-2.57278 3.65637,-4.63232 5.28258,-8.24444 1.51622,-3.36781 2.6489,-7.01824 3.41452,-11.00447 2.71925,-14.15775 6.67449,-23.12273 13.26507,-30.06666 3.04969,-3.213194 6.14639,-5.533105 9.70664,-7.271825 2.07862,-1.01513 5.97952,-2.44397 7.57346,-2.774046 0.4522,-0.0937 0.82218,-0.2527 0.82218,-0.35346 0,-0.37274 -2.7855,-1.08404 -5.42608,-1.38559 -3.18207,-0.36338 -7.35877,-0.0478 -11.46198,0.86595 l -2.53966,0.56558 -1.60706,-0.54805 c -6.79171,-2.31615 -14.36723,-3.0827 -18.7855,-1.90088 -3.29715,0.88194 -5.95198,4.683066 -9.36462,8.608353 -8.61902,9.913798 -0.11288,19.942128 -2.4616,25.190658 -7.03646,15.7239 -5.09285,-16.37131 -6.15742,-15.27686 -8.72212,8.967 -11.51207,7.93967 -15.18414,9.6979 -1.04415,0.49995 -2.30123,0.79506 -4.51666,1.0603 -10.43215,1.24902 -18.6589,3.7713 -26.66036,8.17395 -1.70446,0.93785 -3.09901,1.64776 -3.09901,1.57757 0,-0.25199 5.22774,-4.48479 7.20996,-5.83777 1.11312,-0.75976 2.67845,-1.7165 3.4785,-2.12608 0.80005,-0.40958 1.45464,-0.84862 1.45464,-0.97566 0,-0.12703 -0.95655,-2.39418 -2.12565,-5.03811 -7.19486,-16.271038 -13.46101,-31.184306 -16.47204,-39.202966 -0.87429,-2.32834 -2.97894,-8.34099 -4.67699,-13.36146 -5.55752,-16.43134 -7.29435,-21.09996 -9.68876,-26.04344 -2.44026,-5.03812 -4.49983,-6.7957 -5.99563,-5.11651 -0.72467,0.81352 -0.85344,1.54028 -0.66202,3.7365 l 0.16484,1.89116 -1.25026,-1.98438 c -1.50733,-2.39238 -1.93361,-2.91759 -2.97183,-3.66153 -1.03592,-0.74229 -2.00636,-0.74206 -2.38638,5.7e-4 -0.55709,1.08868 0.58299,4.79751 3.1677,10.30495 0.7778,1.65732 1.21358,2.71565 0.96841,2.35184 -5.56974,-8.26473 -9.75388,-12.2631 -12.30839,-11.76189 -1.44787,0.28407 -1.7697,0.88011 -1.59923,2.96184 0.51932,6.34179 10.21189,26.83304 27.56568,58.277141 2.3692,4.29286 5.52908,9.956595 7.02193,12.586085 2.84797,5.01633 3.57915,6.40055 2.98468,5.65036 -0.18161,-0.22917 -2.08261,-2.88107 -4.22446,-5.89311 -2.14184,-3.01205 -3.92317,-5.443917 -3.9585,-5.404167 -0.0928,0.10451 1.03078,7.846197 1.79329,12.355327 1.51323,8.94855 3.32946,16.54522 4.57303,19.12743 0.33056,0.68639 0.60101,1.34516 0.60101,1.46393 0,0.11878 -2.271,1.33929 -5.04668,2.71226 -2.77568,1.37297 -5.0131,2.53144 -4.97203,2.57439 0.0411,0.0429 1.77134,-0.34857 3.84503,-0.87004 15.89361,-3.99679 32.37248,-7.40954 43.36195,-8.9802 4.11457,-0.58807 11.7051,-0.82453 13.33562,-0.41544 1.5168,0.38057 2.31308,1.16776 2.51816,2.4894 0.28849,1.8593 -0.7788,3.18524 -3.48364,4.32788 -4.63184,1.95668 -11.11019,2.85993 -29.95235,4.17616 -18.0075,1.25792 -26.42485,2.55515 -34.58481,5.32999 -4.882,1.66016 -11.40298,5.27999 -12.87732,7.14827 -0.32531,0.41223 -0.22011,0.43291 1.41952,0.27907 6.12905,-0.57506 11.48318,-0.76209 18.26313,-0.63796 7.75091,0.1419 10.04895,0.36809 16.6483,1.63864 5.57631,1.07358 12.19258,1.95859 16.79031,2.24592 12.01941,0.75113 21.01158,-1.71837 26.61635,-7.30959 l 1.44421,-1.44071 0.68389,2.24629 c 0.80718,2.65119 2.53301,5.85221 3.9597,7.34433 2.15838,2.25738 4.52244,2.79416 7.88703,1.79081 z m 14.99728,-56.43709 c -2.5375,-1.108857 -0.95661,-5.028615 1.64549,-4.079915 1.70184,0.62047 1.78693,3.313895 0.12854,4.068815 -0.97755,0.44499 -0.78388,0.44378 -1.77403,0.0111 z"
             id="path4"
             sodipodi:nodetypes="cssscsssscsssscsscsscssssssccsssssscssscsssssscssssscssssscssssssssssscssssccsssssssssssscsssssss" /><text
             xml:space="preserve"
             style="font-style:italic;font-variant:normal;font-weight:normal;font-stretch:normal;font-size:82.1196px;line-height:1.2;font-family:'Gotham Office';-inkscape-font-specification:'Gotham Office Italic';text-decoration-color:#000000;letter-spacing:0px;word-spacing:0px;fill:#000000;stroke:none;stroke-width:2.21104;stroke-linecap:round;stroke-miterlimit:9.8;paint-order:fill markers stroke"
             x="-769.47522"
             y="258.3902"
             id="text2"><tspan
               sodipodi:role="line"
               id="tspan2"
               x="-769.47522"
               y="258.3902"
               style="font-style:normal;font-variant:normal;font-weight:normal;font-stretch:normal;font-size:82.1196px;font-family:'FONTSPRING DEMO - Integral CF';-inkscape-font-specification:'FONTSPRING DEMO - Integral CF, Normal';font-variant-ligatures:normal;font-variant-caps:normal;font-variant-numeric:normal;font-variant-east-asian:normal;fill:#000000;stroke:none;stroke-width:2.21106">magpies</tspan><tspan
               sodipodi:role="line"
               x="-769.47522"
               y="361.62628"
               style="font-style:normal;font-variant:normal;font-weight:normal;font-stretch:normal;font-size:82.1196px;font-family:'FONTSPRING DEMO - Integral CF';-inkscape-font-specification:'FONTSPRING DEMO - Integral CF, Normal';font-variant-ligatures:normal;font-variant-caps:normal;font-variant-numeric:normal;font-variant-east-asian:normal;fill:#000000;stroke:none;stroke-width:2.21106"
               id="tspan3"
               dy="-36.642567">agency</tspan></text></g><g
           id="g6" /></g></g></g></svg>
